# xmcd
#
# Track frame offsets: 
#        150
#        17449
#        30565
#        46046
#        59347
#        75030
#        93075
#        106320
#        121428
#        135948
#        153090
#        168397
#        183356
#        197047
#        216485
#        231256
#        243418
#        259091
#        273562
#        288733
#        300522
#        315818
#
# Disc length: 4457 seconds
#
# Revision: 0
# Processed by: cddbd v1.5.2PL0 Copyright (c) Steve Scherf et al.
# Submitted via: ExactAudioCopyFreeDBPlugin 1.0
#
DISCID=17116716
DTITLE=Ray Stevens - We the People
DYEAR=2009
DGENRE=Country
TTITLE0=We the People
TTITLE1=Caribou Barbie
TTITLE2=Stand Up
TTITLE3=Three Fractured Factions
TTITLE4=Dear Andy Griffith
TTITLE5=The Global Warming Song
TTITLE6=Let's Roll
TTITLE7=Solar Powered Song
TTITLE8=Fly Over Country
TTITLE9=We Are the Government
TTITLE10=The Fallen Ones
TTITLE11=Come to the U.S.A.
TTITLE12=If Ten Percent Is Good Enough for Jesus
TTITLE13=Kings and Queens
TTITLE14=Obama Nation
TTITLE15=Throw the Bums Out
TTITLE16=Sucking Sound
TTITLE17=Safe at Home
TTITLE18=Thank You
TTITLE19=Pledge of Allegiance - Star Spangled Banner
TTITLE20=Mr. Buisiness Man
TTITLE21=Midnight in Baghdad
EXTD=
EXTT0=
EXTT1=
EXTT2=
EXTT3=
EXTT4=
EXTT5=
EXTT6=
EXTT7=
EXTT8=
EXTT9=
EXTT10=
EXTT11=
EXTT12=
EXTT13=
EXTT14=
EXTT15=
EXTT16=
EXTT17=
EXTT18=
EXTT19=
EXTT20=
EXTT21=
PLAYORDER=
